<svg version="1.1" xmlns="http://www.w3.org/2000/svg" xmlns:xlink="http://www.w3.org/1999/xlink" width="1135" height="510" viewBox="0 0 1135 510"><defs/><g transform="matrix(1,0,0,1,0,0)"><g><g><g><path fill="none" stroke="#d3d3d3" paint-order="fill stroke markers" d=" M 0 0 L 1200 0" stroke-miterlimit="10" stroke-opacity="0.8" stroke-dasharray="5"/></g><g><path fill="none" stroke="#d3d3d3" paint-order="fill stroke markers" d=" M 0 0 L 0 800" stroke-miterlimit="10" stroke-opacity="0.8" stroke-dasharray="5"/></g></g><g id="_D4C3BEB2-F4E2-4131-A252-F3A38D90E0DF" bpmn2nodeid="_D4C3BEB2-F4E2-4131-A252-F3A38D90E0DF" transform="matrix(1,0,0,1,131,132)"><g><path fill="none" stroke="none"/></g><g transform="matrix(1,0,0,1,0,0)"><path fill="#ffffff" stroke="none" id="_D4C3BEB2-F4E2-4131-A252-F3A38D90E0DF?shapeType=BACKGROUND" paint-order="stroke fill markers" d=" M 2 0 L 56 0 L 56 0 A 2 2 0 0 1 58 2 L 58 48 L 58 48 A 2 2 0 0 1 56 50 L 2 50 L 2 50 A 2 2 0 0 1 0 48 L 0 2 L 0 2.0000000000000004 A 2 2 0 0 1 1.9999999999999996 0 Z"/></g><g transform="matrix(1,0,0,1,0,0)"><path fill="none" stroke="#000000" id="_D4C3BEB2-F4E2-4131-A252-F3A38D90E0DF?shapeType=BORDER&amp;renderType=STROKE" paint-order="fill stroke markers" d=" M 2 0 L 56 0 L 56 0 A 2 2 0 0 1 58 2 L 58 48 L 58 48 A 2 2 0 0 1 56 50 L 2 50 L 2 50 A 2 2 0 0 1 0 48 L 0 2 L 0 2.0000000000000004 A 2 2 0 0 1 1.9999999999999996 0 Z" stroke-miterlimit="10" stroke-width="1.5" stroke-dasharray=""/></g><g><g transform="matrix(0.06,0,0,0.06,9.4,9.4)"><g transform="matrix(1,0,0,1,0,0)"><path fill="#393f44" stroke="none" id="_D4C3BEB2-F4E2-4131-A252-F3A38D90E0DF_task__sy0h__jMfG" paint-order="stroke fill markers" d=" M 0 0 M 197.3 130.2 C 194.4 127.29999999999998 189.60000000000002 127.29999999999998 186.70000000000002 130.2 L 130.20000000000002 186.7 C 127.30000000000001 189.6 127.30000000000001 194.39999999999998 130.20000000000002 197.29999999999998 L 186.70000000000002 253.79999999999998 C 188.10000000000002 255.29999999999998 190.10000000000002 255.99999999999997 192.00000000000003 255.99999999999997 C 193.90000000000003 255.99999999999997 195.90000000000003 255.29999999999998 197.30000000000004 253.69999999999996 C 200.20000000000005 250.79999999999995 200.20000000000005 245.99999999999997 197.30000000000004 243.09999999999997 L 146.2 192 L 197.29999999999998 140.8 C 200.2 137.9 200.2 133.1 197.3 130.2 Z"/></g><g transform="matrix(1,0,0,1,0,0)"><path fill="#393f44" stroke="none" id="_D4C3BEB2-F4E2-4131-A252-F3A38D90E0DF_task__sy0h__kiuk" paint-order="stroke fill markers" d=" M 0 0 M 261.3 130.2 C 258.40000000000003 127.29999999999998 253.60000000000002 127.29999999999998 250.70000000000002 130.2 C 247.8 133.1 247.8 137.89999999999998 250.70000000000002 140.79999999999998 L 301.8 191.89999999999998 L 250.7 243 C 247.79999999999998 245.9 247.79999999999998 250.7 250.7 253.6 C 252.1 255.29999999999998 254.1 256 256 256 C 257.9 256 259.9 255.3 261.3 253.8 L 317.8 197.3 C 320.7 194.4 320.7 189.60000000000002 317.8 186.70000000000002 L 261.3 130.2 Z"/></g><g transform="matrix(1,0,0,1,0,0)"><path fill="#393f44" stroke="none" id="_D4C3BEB2-F4E2-4131-A252-F3A38D90E0DF_task__sy0h__xq2e" paint-order="stroke fill markers" d=" M 0 0 M 400 32 C 400 32 152.8 32 128 32 C 62 32 64 96 64 96 L 64 288 L 1 288 C 1 288 -4 416 78 416 L 320 416 C 368 416 384 368 384 336 C 384 314.2 384 224.4 384 160 L 448 160 L 448 96 C 448 96 449 32 400 32 Z M 0 0 M 78 383.9 C 68.5 383.9 61.6 381.09999999999997 55.5 374.9 C 43.4 362.4 37.5 339.59999999999997 34.9 320 L 256.9 320 C 257.09999999999997 322.7 257.29999999999995 325.4 257.59999999999997 328.2 C 259.99999999999994 351.59999999999997 264.7 370.09999999999997 271.9 383.9 L 78 383.9 L 78 383.9 Z M 0 0 M 352 336 C 352 345.9 349.6 360.3 342.9 371 C 337.2 380.1 330.4 384 320 384 C 285 384 288 288 288 288 L 96 288 L 96 96 L 96 95.9 L 96 95.10000000000001 C 96 90.60000000000001 97.6 78.30000000000001 104.7 71.20000000000002 C 106.5 69.40000000000002 111.9 64.00000000000001 128 64.00000000000001 L 356.5 64.00000000000001 C 354.4 72.80000000000001 352.8 81.80000000000001 352.2 89.9 C 352.2 90.5 352.09999999999997 91.10000000000001 352.09999999999997 91.7 C 352.09999999999997 92 352.09999999999997 92.3 352.09999999999997 92.60000000000001 C 352 94.8 352 96 352 96 L 352 160 L 352 336 Z"/></g></g></g><g transform="matrix(1,0,0,1,35,10)"><text fill="#000000" stroke="none" font-family="Open Sans" font-size="12pt" font-style="normal" font-weight="normal" text-decoration="normal" x="7.140625" y="12" text-anchor="middle" dominant-baseline="alphabetic">In</text><text fill="#000000" stroke="none" font-family="Open Sans" font-size="12pt" font-style="normal" font-weight="normal" text-decoration="normal" x="7.140625" y="27" text-anchor="middle" dominant-baseline="alphabetic"> t </text></g></g><g id="_DD7236E2-2EE6-4291-8AFE-D1BEA814E647" bpmn2nodeid="_DD7236E2-2EE6-4291-8AFE-D1BEA814E647" transform="matrix(1,0,0,1,205,126)"><g><path fill="none" stroke="none"/></g><g transform="matrix(0.125,0,0,0.125,0,0)"><g transform="matrix(1,0,0,1,0,0)"><path fill="#fef4ea" stroke="none" id="_DD7236E2-2EE6-4291-8AFE-D1BEA814E647?shapeType=BACKGROUND" paint-order="stroke fill markers" d=" M 0 0 M 224.4 4.3 C 216.4 4.3 208.4 7.3 202.3 13.399999999999999 L 13.5 202.2 C 1.3000000000000007 214.39999999999998 1.3000000000000007 234.2 13.5 246.39999999999998 L 202.2 435.09999999999997 C 208.29999999999998 441.2 216.39999999999998 444.2 224.29999999999998 444.2 C 232.2 444.2 240.29999999999998 441.2 246.39999999999998 435.09999999999997 L 435.09999999999997 246.39999999999998 C 447.29999999999995 234.2 447.29999999999995 214.39999999999998 435.09999999999997 202.2 L 246.5 13.4 C 240.4 7.3 232.4 4.3 224.4 4.3 L 224.4 4.3 Z"/></g><g><g transform="matrix(1,0,0,1,0,0)"><g transform="matrix(1,0,0,1,0,0)"><path fill="#ec7a08" stroke="none" id="_DD7236E2-2EE6-4291-8AFE-D1BEA814E647?shapeType=BORDER&amp;renderType=FILL" paint-order="stroke fill markers" d=" M 0 0 M 20.8 212.7 L 213.3 20.2 C 219.60000000000002 13.899999999999999 229.70000000000002 13.899999999999999 235.9 20.2 L 428.4 212.7 C 434.7 219 434.7 229.1 428.4 235.29999999999998 L 235.9 427.8 C 229.6 434.1 219.5 434.1 213.3 427.8 L 20.8 235.3 C 14.5 229.1 14.5 218.9 20.8 212.7 L 20.8 212.7 Z M 0 0 M 0 224 C 0 232.1 3.1 240.3 9.3 246.5 L 201.5 438.7 C 213.9 451.09999999999997 234.1 451.09999999999997 246.5 438.7 L 438.7 246.5 C 444.9 240.3 448 232.1 448 224 C 448 215.9 444.9 207.7 438.7 201.5 L 246.5 9.3 C 234.1 -3.0999999999999996 213.9 -3.0999999999999996 201.5 9.3 L 9.3 201.5 C 3.1 207.7 0 215.9 0 224 L 0 224 Z"/></g></g></g><g><g transform="matrix(1,0,0,1,0,0)"><g transform="matrix(1,0,0,1,0,0)"><path fill="#ec7a08" stroke="none" id="_DD7236E2-2EE6-4291-8AFE-D1BEA814E647_inclusive" paint-order="stroke fill markers" d=" M 0 0 M 224 127.9 C 249.6 127.9 273.8 137.9 291.9 156 C 310 174.2 320 198.3 320 223.9 C 320 249.5 310 273.6 291.9 291.8 C 273.79999999999995 309.90000000000003 249.7 319.90000000000003 223.99999999999997 319.90000000000003 C 198.29999999999995 319.90000000000003 174.2 309.90000000000003 156.09999999999997 291.8 C 138 273.7 128 249.6 128 223.9 C 128 198.20000000000002 138 174.10000000000002 156.1 156 C 174.2 137.89999999999998 198.4 127.9 224 127.9 M 224 111.9 C 162.1 111.9 112 162 112 223.9 C 112 285.8 162.1 335.9 224 335.9 C 285.9 335.9 336 285.79999999999995 336 223.89999999999998 C 336 162 285.9 111.9 224 111.9 L 224 111.9 Z"/></g></g></g></g><g transform="matrix(1,0,0,1,28,61)"/></g><g id="_7FD3733C-B165-4E4C-9501-CCE4BFCD5D5F" bpmn2nodeid="_7FD3733C-B165-4E4C-9501-CCE4BFCD5D5F" transform="matrix(1,0,0,1,778,126)"><g><path fill="none" stroke="none"/></g><g transform="matrix(0.125,0,0,0.125,0,0)"><g transform="matrix(1,0,0,1,0,0)"><path fill="#fef4ea" stroke="none" id="_7FD3733C-B165-4E4C-9501-CCE4BFCD5D5F?shapeType=BACKGROUND" paint-order="stroke fill markers" d=" M 0 0 M 224.4 4.3 C 216.4 4.3 208.4 7.3 202.3 13.399999999999999 L 13.5 202.2 C 1.3000000000000007 214.39999999999998 1.3000000000000007 234.2 13.5 246.39999999999998 L 202.2 435.09999999999997 C 208.29999999999998 441.2 216.39999999999998 444.2 224.29999999999998 444.2 C 232.2 444.2 240.29999999999998 441.2 246.39999999999998 435.09999999999997 L 435.09999999999997 246.39999999999998 C 447.29999999999995 234.2 447.29999999999995 214.39999999999998 435.09999999999997 202.2 L 246.5 13.4 C 240.4 7.3 232.4 4.3 224.4 4.3 L 224.4 4.3 Z"/></g><g><g transform="matrix(1,0,0,1,0,0)"><g transform="matrix(1,0,0,1,0,0)"><path fill="#ec7a08" stroke="none" id="_7FD3733C-B165-4E4C-9501-CCE4BFCD5D5F?shapeType=BORDER&amp;renderType=FILL" paint-order="stroke fill markers" d=" M 0 0 M 20.8 212.7 L 213.3 20.2 C 219.60000000000002 13.899999999999999 229.70000000000002 13.899999999999999 235.9 20.2 L 428.4 212.7 C 434.7 219 434.7 229.1 428.4 235.29999999999998 L 235.9 427.8 C 229.6 434.1 219.5 434.1 213.3 427.8 L 20.8 235.3 C 14.5 229.1 14.5 218.9 20.8 212.7 L 20.8 212.7 Z M 0 0 M 0 224 C 0 232.1 3.1 240.3 9.3 246.5 L 201.5 438.7 C 213.9 451.09999999999997 234.1 451.09999999999997 246.5 438.7 L 438.7 246.5 C 444.9 240.3 448 232.1 448 224 C 448 215.9 444.9 207.7 438.7 201.5 L 246.5 9.3 C 234.1 -3.0999999999999996 213.9 -3.0999999999999996 201.5 9.3 L 9.3 201.5 C 3.1 207.7 0 215.9 0 224 L 0 224 Z"/></g></g></g><g><g transform="matrix(1,0,0,1,0,0)"><g transform="matrix(1,0,0,1,0,0)"><path fill="#ec7a08" stroke="none" id="_7FD3733C-B165-4E4C-9501-CCE4BFCD5D5F_exclusive" paint-order="stroke fill markers" d=" M 0 0 M 298.2 269.2 C 298.2 272.59999999999997 297.09999999999997 275.3 294.7 277.7 L 277.7 294.7 C 275.3 297.09999999999997 272.59999999999997 298.2 269.2 298.2 C 265.8 298.2 263.09999999999997 297.09999999999997 260.7 294.7 L 224 258 L 187.2 294.8 C 184.79999999999998 297.2 182.1 298.3 178.7 298.3 C 175.29999999999998 298.3 172.6 297.2 170.2 294.8 L 153.2 277.8 C 150.79999999999998 275.40000000000003 149.7 272.7 149.7 269.3 C 149.7 265.90000000000003 150.79999999999998 263.2 153.2 260.8 L 190 224 L 153.2 187.2 C 150.79999999999998 184.79999999999998 149.7 182 149.7 178.7 C 149.7 175.29999999999998 150.79999999999998 172.5 153.2 170.2 L 170.2 153.2 C 172.6 150.79999999999998 175.29999999999998 149.7 178.7 149.7 C 182.1 149.7 184.79999999999998 150.79999999999998 187.2 153.2 L 224 190 L 260.8 153.2 C 263.2 150.79999999999998 265.90000000000003 149.7 269.3 149.7 C 272.7 149.7 275.40000000000003 150.79999999999998 277.8 153.2 L 294.8 170.2 C 297.2 172.5 298.3 175.29999999999998 298.3 178.7 C 298.3 182 297.2 184.79999999999998 294.8 187.2 L 258 224 L 294.8 260.8 C 297.1 263.1 298.2 265.9 298.2 269.2 Z"/></g></g></g></g><g transform="matrix(1,0,0,1,-20.47265625,61)"><text fill="#000000" stroke="none" font-family="Open Sans" font-size="12pt" font-style="normal" font-weight="normal" text-decoration="normal" x="48.47265625" y="12" text-anchor="middle" dominant-baseline="alphabetic">Ejecución OK</text></g></g><g id="_1B0D5621-1194-40EB-9354-8A31DA3DB4E4" bpmn2nodeid="_1B0D5621-1194-40EB-9354-8A31DA3DB4E4" transform="matrix(1,0,0,1,297,290)"><g><path fill="none" stroke="none"/></g><g transform="matrix(0.125,0,0,0.125,0,0)"><g transform="matrix(1,0,0,1,0,0)"><path fill="#fbefcf" stroke="none" id="_1B0D5621-1194-40EB-9354-8A31DA3DB4E4?shapeType=BACKGROUND" paint-order="stroke fill markers" d=" M 0 0 M 444 224 C 444 263.9 434.2 300.8 414.4 334.5 C 394.7 368.2 368 394.9 334.4 414.5 C 300.79999999999995 434.1 263.9 444 224 444 C 184.10000000000002 444 147.2 434.2 113.5 414.4 C 79.8 394.7 53.1 368 33.5 334.4 C 13.899999999999999 300.79999999999995 4 263.9 4 224 C 4 184.10000000000002 13.8 147.2 33.6 113.5 C 53.400000000000006 79.80000000000001 80.1 53.1 113.6 33.5 C 147.1 13.899999999999999 184.1 4 224 4 C 263.9 4 300.8 13.8 334.5 33.6 C 368.2 53.400000000000006 394.9 80.1 414.5 113.6 C 434.1 147.1 444 184.1 444 224 Z"/></g><g><g transform="matrix(1,0,0,1,0,0)"><g transform="matrix(1,0,0,1,0,0)"><path fill="#e5a000" stroke="none" id="_1B0D5621-1194-40EB-9354-8A31DA3DB4E4?shapeType=BORDER&amp;renderType=FILL" paint-order="stroke fill markers" d=" M 0 0 M 224 408 C 122.5 408 40 325.5 40 224 C 40 122.5 122.5 40 224 40 C 325.5 40 408 122.5 408 224 C 408 325.5 325.5 408 224 408 Z M 0 0 M 224 56 C 131.4 56 56 131.4 56 224 C 56 316.6 131.4 392 224 392 C 316.6 392 392 316.6 392 224 C 392 131.39999999999998 316.6 56 224 56 Z M 0 0 M 224 16 C 252.1 16 279.3 21.5 305 32.3 C 329.8 42.8 352 57.8 371.1 76.9 C 390.20000000000005 96.00000000000001 405.20000000000005 118.30000000000001 415.70000000000005 143 C 426.50000000000006 168.6 432.00000000000006 195.9 432.00000000000006 224 C 432.00000000000006 252.1 426.50000000000006 279.3 415.70000000000005 305 C 405.20000000000005 329.8 390.20000000000005 352 371.1 371.1 C 352 390.20000000000005 329.70000000000005 405.20000000000005 305 415.70000000000005 C 279.4 426.50000000000006 252.1 432.00000000000006 224 432.00000000000006 C 195.9 432.00000000000006 168.7 426.50000000000006 143 415.70000000000005 C 118.2 405.20000000000005 96 390.20000000000005 76.9 371.1 C 57.80000000000001 352 42.8 329.7 32.3 305 C 21.5 279.3 16 252.1 16 224 C 16 195.9 21.5 168.7 32.3 143 C 42.8 118.2 57.8 96 76.9 76.9 C 96.00000000000001 57.80000000000001 118.30000000000001 42.800000000000004 143 32.300000000000004 C 168.7 21.5 195.9 16 224 16 M 224 0 C 100.3 0 0 100.3 0 224 C 0 347.7 100.3 448 224 448 C 347.7 448 448 347.7 448 224 C 448 100.30000000000001 347.7 0 224 0 L 224 0 Z"/></g></g></g><g><g transform="matrix(1,0,0,1,0,0)"><g transform="matrix(1,0,0,1,0,0)"><path fill="#e5a000" stroke="none" id="_1B0D5621-1194-40EB-9354-8A31DA3DB4E4_wait" paint-order="stroke fill markers" d=" M 0 0 M 240.2 176.7 L 240.2 232.7 C 240.2 233.89999999999998 239.79999999999998 234.79999999999998 239.1 235.6 C 238.4 236.4 237.4 236.7 236.2 236.7 L 196.2 236.7 C 195 236.7 194.1 236.29999999999998 193.29999999999998 235.6 C 192.49999999999997 234.9 192.2 233.9 192.2 232.7 L 192.2 224.7 C 192.2 223.5 192.6 222.6 193.29999999999998 221.79999999999998 C 193.99999999999997 220.99999999999997 194.99999999999997 220.7 196.2 220.7 L 224.2 220.7 L 224.2 176.7 C 224.2 175.5 224.6 174.6 225.29999999999998 173.79999999999998 C 225.99999999999997 172.99999999999997 226.99999999999997 172.7 228.2 172.7 L 236.2 172.7 C 237.29999999999998 172.7 238.29999999999998 173.1 239.1 173.79999999999998 C 239.9 174.5 240.2 175.5 240.2 176.7 Z M 0 0 M 300.2 220.7 C 300.2 206.89999999999998 296.8 194.2 290.09999999999997 182.6 C 283.29999999999995 171 274.09999999999997 161.7 262.49999999999994 154.9 C 250.79999999999995 148.1 238.09999999999994 144.70000000000002 224.29999999999995 144.70000000000002 C 210.49999999999997 144.70000000000002 197.79999999999995 148.10000000000002 186.19999999999996 154.9 C 174.59999999999997 161.70000000000002 165.39999999999995 170.9 158.59999999999997 182.5 C 151.79999999999998 194.1 148.39999999999998 206.9 148.39999999999998 220.7 C 148.39999999999998 234.49999999999997 151.79999999999998 247.2 158.49999999999997 258.8 C 165.29999999999998 270.40000000000003 174.59999999999997 279.7 186.19999999999996 286.5 C 197.79999999999995 293.3 210.49999999999997 296.7 224.29999999999995 296.7 C 238.09999999999994 296.7 250.79999999999995 293.3 262.4 286.5 C 274 279.7 283.29999999999995 270.5 290 258.9 C 296.8 247.2 300.2 234.5 300.2 220.7 Z M 0 0 M 320.2 220.7 C 320.2 238.1 315.9 254.2 307.3 268.9 C 298.7 283.59999999999997 287.1 295.29999999999995 272.40000000000003 303.79999999999995 C 257.70000000000005 312.4 241.60000000000002 316.69999999999993 224.20000000000005 316.69999999999993 C 206.80000000000007 316.69999999999993 190.70000000000005 312.3999999999999 176.00000000000006 303.79999999999995 C 161.30000000000007 295.19999999999993 149.70000000000005 283.59999999999997 141.10000000000005 268.9 C 132.50000000000006 254.2 128.30000000000004 238.09999999999997 128.30000000000004 220.7 C 128.30000000000004 203.3 132.60000000000005 187.2 141.20000000000005 172.5 C 149.80000000000004 157.8 161.40000000000003 146.1 176.10000000000005 137.5 C 190.80000000000004 128.9 206.90000000000006 124.7 224.30000000000007 124.7 C 241.70000000000007 124.7 257.80000000000007 129 272.50000000000006 137.6 C 287.20000000000005 146.2 298.90000000000003 157.9 307.40000000000003 172.5 C 316 187.2 320.2 203.3 320.2 220.7 Z"/></g></g></g></g><g transform="matrix(1,0,0,1,-36.48046875,61)"><text fill="#000000" stroke="none" font-family="Open Sans" font-size="12pt" font-style="normal" font-weight="normal" text-decoration="normal" x="64.48046875" y="12" text-anchor="middle" dominant-baseline="alphabetic">Espera 5 Minutos</text></g></g><g id="_5D231CC9-4182-410F-AD6D-45844E750C63" bpmn2nodeid="_5D231CC9-4182-410F-AD6D-45844E750C63" transform="matrix(1,0,0,1,551,103)"><g><path fill="none" stroke="none"/></g><g transform="matrix(1,0,0,1,0,0)"><path fill="#ffffff" stroke="none" id="_5D231CC9-4182-410F-AD6D-45844E750C63?shapeType=BACKGROUND" paint-order="stroke fill markers" d=" M 2 0 L 152 0 L 152 0 A 2 2 0 0 1 154 2 L 154 100 L 154 100 A 2 2 0 0 1 152 102 L 2 102 L 2 102 A 2 2 0 0 1 0 100 L 0 2 L 0 2.0000000000000004 A 2 2 0 0 1 1.9999999999999996 0 Z"/></g><g transform="matrix(1,0,0,1,0,0)"><path fill="none" stroke="#000000" id="_5D231CC9-4182-410F-AD6D-45844E750C63?shapeType=BORDER&amp;renderType=STROKE" paint-order="fill stroke markers" d=" M 2 0 L 152 0 L 152 0 A 2 2 0 0 1 154 2 L 154 100 L 154 100 A 2 2 0 0 1 152 102 L 2 102 L 2 102 A 2 2 0 0 1 0 100 L 0 2 L 0 2.0000000000000004 A 2 2 0 0 1 1.9999999999999996 0 Z" stroke-miterlimit="10" stroke-width="1.5" stroke-dasharray=""/></g><g><g transform="matrix(0.06,0,0,0.06,9.4,9.4)"><g transform="matrix(1,0,0,1,0,0)"><path fill="#393f44" stroke="none" id="_5D231CC9-4182-410F-AD6D-45844E750C63_task__sy0h__jMfG" paint-order="stroke fill markers" d=" M 0 0 M 197.3 130.2 C 194.4 127.29999999999998 189.60000000000002 127.29999999999998 186.70000000000002 130.2 L 130.20000000000002 186.7 C 127.30000000000001 189.6 127.30000000000001 194.39999999999998 130.20000000000002 197.29999999999998 L 186.70000000000002 253.79999999999998 C 188.10000000000002 255.29999999999998 190.10000000000002 255.99999999999997 192.00000000000003 255.99999999999997 C 193.90000000000003 255.99999999999997 195.90000000000003 255.29999999999998 197.30000000000004 253.69999999999996 C 200.20000000000005 250.79999999999995 200.20000000000005 245.99999999999997 197.30000000000004 243.09999999999997 L 146.2 192 L 197.29999999999998 140.8 C 200.2 137.9 200.2 133.1 197.3 130.2 Z"/></g><g transform="matrix(1,0,0,1,0,0)"><path fill="#393f44" stroke="none" id="_5D231CC9-4182-410F-AD6D-45844E750C63_task__sy0h__kiuk" paint-order="stroke fill markers" d=" M 0 0 M 261.3 130.2 C 258.40000000000003 127.29999999999998 253.60000000000002 127.29999999999998 250.70000000000002 130.2 C 247.8 133.1 247.8 137.89999999999998 250.70000000000002 140.79999999999998 L 301.8 191.89999999999998 L 250.7 243 C 247.79999999999998 245.9 247.79999999999998 250.7 250.7 253.6 C 252.1 255.29999999999998 254.1 256 256 256 C 257.9 256 259.9 255.3 261.3 253.8 L 317.8 197.3 C 320.7 194.4 320.7 189.60000000000002 317.8 186.70000000000002 L 261.3 130.2 Z"/></g><g transform="matrix(1,0,0,1,0,0)"><path fill="#393f44" stroke="none" id="_5D231CC9-4182-410F-AD6D-45844E750C63_task__sy0h__xq2e" paint-order="stroke fill markers" d=" M 0 0 M 400 32 C 400 32 152.8 32 128 32 C 62 32 64 96 64 96 L 64 288 L 1 288 C 1 288 -4 416 78 416 L 320 416 C 368 416 384 368 384 336 C 384 314.2 384 224.4 384 160 L 448 160 L 448 96 C 448 96 449 32 400 32 Z M 0 0 M 78 383.9 C 68.5 383.9 61.6 381.09999999999997 55.5 374.9 C 43.4 362.4 37.5 339.59999999999997 34.9 320 L 256.9 320 C 257.09999999999997 322.7 257.29999999999995 325.4 257.59999999999997 328.2 C 259.99999999999994 351.59999999999997 264.7 370.09999999999997 271.9 383.9 L 78 383.9 L 78 383.9 Z M 0 0 M 352 336 C 352 345.9 349.6 360.3 342.9 371 C 337.2 380.1 330.4 384 320 384 C 285 384 288 288 288 288 L 96 288 L 96 96 L 96 95.9 L 96 95.10000000000001 C 96 90.60000000000001 97.6 78.30000000000001 104.7 71.20000000000002 C 106.5 69.40000000000002 111.9 64.00000000000001 128 64.00000000000001 L 356.5 64.00000000000001 C 354.4 72.80000000000001 352.8 81.80000000000001 352.2 89.9 C 352.2 90.5 352.09999999999997 91.10000000000001 352.09999999999997 91.7 C 352.09999999999997 92 352.09999999999997 92.3 352.09999999999997 92.60000000000001 C 352 94.8 352 96 352 96 L 352 160 L 352 336 Z"/></g></g></g><g transform="matrix(1,0,0,1,38.359375,36)"><text fill="#000000" stroke="none" font-family="Open Sans" font-size="12pt" font-style="normal" font-weight="normal" text-decoration="normal" x="38.640625" y="12" text-anchor="middle" dominant-baseline="alphabetic"> Procesa   </text><text fill="#000000" stroke="none" font-family="Open Sans" font-size="12pt" font-style="normal" font-weight="normal" text-decoration="normal" x="38.640625" y="27" text-anchor="middle" dominant-baseline="alphabetic">Respuesta</text></g></g><g id="_634F4EEA-0BF0-4F15-9FF5-B73FE13A31DD" bpmn2nodeid="_634F4EEA-0BF0-4F15-9FF5-B73FE13A31DD" transform="matrix(1,0,0,1,303.5,129)"><g><path fill="none" stroke="none"/></g><g transform="matrix(1,0,0,1,0,0)"><path fill="#ffffff" stroke="none" id="_634F4EEA-0BF0-4F15-9FF5-B73FE13A31DD?shapeType=BACKGROUND" paint-order="stroke fill markers" d=" M 2 0 L 67 0 L 67 0 A 2 2 0 0 1 69 2 L 69 48 L 69 48 A 2 2 0 0 1 67 50 L 2 50 L 2 50 A 2 2 0 0 1 0 48 L 0 2 L 0 2.0000000000000004 A 2 2 0 0 1 1.9999999999999996 0 Z"/></g><g transform="matrix(1,0,0,1,0,0)"><path fill="none" stroke="rgb(0,0,0)" id="_634F4EEA-0BF0-4F15-9FF5-B73FE13A31DD?shapeType=BORDER&amp;renderType=STROKE" paint-order="fill stroke markers" d=" M 2 0 L 67 0 L 67 0 A 2 2 0 0 1 69 2 L 69 48 L 69 48 A 2 2 0 0 1 67 50 L 2 50 L 2 50 A 2 2 0 0 1 0 48 L 0 2 L 0 2.0000000000000004 A 2 2 0 0 1 1.9999999999999996 0 Z" stroke-miterlimit="10" stroke-width="1.5" stroke-dasharray=""/></g><g><g transform="matrix(0.06,0,0,0.06,9.4,9.4)"><g transform="matrix(1,0,0,1,0,0)"><path fill="#393f44" stroke="none" id="_634F4EEA-0BF0-4F15-9FF5-B73FE13A31DD_task__sy0h__jMfG" paint-order="stroke fill markers" d=" M 0 0 M 197.3 130.2 C 194.4 127.29999999999998 189.60000000000002 127.29999999999998 186.70000000000002 130.2 L 130.20000000000002 186.7 C 127.30000000000001 189.6 127.30000000000001 194.39999999999998 130.20000000000002 197.29999999999998 L 186.70000000000002 253.79999999999998 C 188.10000000000002 255.29999999999998 190.10000000000002 255.99999999999997 192.00000000000003 255.99999999999997 C 193.90000000000003 255.99999999999997 195.90000000000003 255.29999999999998 197.30000000000004 253.69999999999996 C 200.20000000000005 250.79999999999995 200.20000000000005 245.99999999999997 197.30000000000004 243.09999999999997 L 146.2 192 L 197.29999999999998 140.8 C 200.2 137.9 200.2 133.1 197.3 130.2 Z"/></g><g transform="matrix(1,0,0,1,0,0)"><path fill="#393f44" stroke="none" id="_634F4EEA-0BF0-4F15-9FF5-B73FE13A31DD_task__sy0h__kiuk" paint-order="stroke fill markers" d=" M 0 0 M 261.3 130.2 C 258.40000000000003 127.29999999999998 253.60000000000002 127.29999999999998 250.70000000000002 130.2 C 247.8 133.1 247.8 137.89999999999998 250.70000000000002 140.79999999999998 L 301.8 191.89999999999998 L 250.7 243 C 247.79999999999998 245.9 247.79999999999998 250.7 250.7 253.6 C 252.1 255.29999999999998 254.1 256 256 256 C 257.9 256 259.9 255.3 261.3 253.8 L 317.8 197.3 C 320.7 194.4 320.7 189.60000000000002 317.8 186.70000000000002 L 261.3 130.2 Z"/></g><g transform="matrix(1,0,0,1,0,0)"><path fill="#393f44" stroke="none" id="_634F4EEA-0BF0-4F15-9FF5-B73FE13A31DD_task__sy0h__xq2e" paint-order="stroke fill markers" d=" M 0 0 M 400 32 C 400 32 152.8 32 128 32 C 62 32 64 96 64 96 L 64 288 L 1 288 C 1 288 -4 416 78 416 L 320 416 C 368 416 384 368 384 336 C 384 314.2 384 224.4 384 160 L 448 160 L 448 96 C 448 96 449 32 400 32 Z M 0 0 M 78 383.9 C 68.5 383.9 61.6 381.09999999999997 55.5 374.9 C 43.4 362.4 37.5 339.59999999999997 34.9 320 L 256.9 320 C 257.09999999999997 322.7 257.29999999999995 325.4 257.59999999999997 328.2 C 259.99999999999994 351.59999999999997 264.7 370.09999999999997 271.9 383.9 L 78 383.9 L 78 383.9 Z M 0 0 M 352 336 C 352 345.9 349.6 360.3 342.9 371 C 337.2 380.1 330.4 384 320 384 C 285 384 288 288 288 288 L 96 288 L 96 96 L 96 95.9 L 96 95.10000000000001 C 96 90.60000000000001 97.6 78.30000000000001 104.7 71.20000000000002 C 106.5 69.40000000000002 111.9 64.00000000000001 128 64.00000000000001 L 356.5 64.00000000000001 C 354.4 72.80000000000001 352.8 81.80000000000001 352.2 89.9 C 352.2 90.5 352.09999999999997 91.10000000000001 352.09999999999997 91.7 C 352.09999999999997 92 352.09999999999997 92.3 352.09999999999997 92.60000000000001 C 352 94.8 352 96 352 96 L 352 160 L 352 336 Z"/></g></g></g><g transform="matrix(1,0,0,1,35,17.5)"><text fill="#000000" stroke="none" font-family="Open Sans" font-size="12pt" font-style="normal" font-weight="normal" text-decoration="normal" x="9.1640625" y="12" text-anchor="middle" dominant-baseline="alphabetic">Ini</text></g></g><g id="_9CE1DACB-3486-44A7-9EC8-D3F1F0C67718" bpmn2nodeid="_9CE1DACB-3486-44A7-9EC8-D3F1F0C67718" transform="matrix(1,0,0,1,597,403.5)"><g><path fill="none" stroke="none"/></g><g transform="matrix(0.125,0,0,0.125,0,0)"><g transform="matrix(1,0,0,1,0,0)"><path fill="#fce7e7" stroke="none" id="_9CE1DACB-3486-44A7-9EC8-D3F1F0C67718?shapeType=BACKGROUND" paint-order="stroke fill markers" d=" M 0 0 M 444 224 C 444 263.9 434.2 300.8 414.4 334.5 C 394.7 368.2 368 394.9 334.4 414.5 C 300.79999999999995 434.1 263.9 444 224 444 C 184.10000000000002 444 147.2 434.2 113.5 414.4 C 79.8 394.7 53.1 368 33.5 334.4 C 13.899999999999999 300.79999999999995 4 263.9 4 224 C 4 184.10000000000002 13.8 147.2 33.6 113.5 C 53.400000000000006 79.80000000000001 80.1 53.1 113.6 33.5 C 147.1 13.899999999999999 184.1 4 224 4 C 263.9 4 300.8 13.8 334.5 33.6 C 368.2 53.400000000000006 394.9 80.1 414.5 113.6 C 434.1 147.1 444 184.1 444 224 Z"/></g><g><g transform="matrix(1,0,0,1,0,0)"><g transform="matrix(1,0,0,1,0,0)"><path fill="#a30000" stroke="none" id="_9CE1DACB-3486-44A7-9EC8-D3F1F0C67718?shapeType=BORDER&amp;renderType=FILL" paint-order="stroke fill markers" d=" M 0 0 M 224 0 C 100.3 0 0 100.3 0 224 C 0 347.7 100.3 448 224 448 C 347.7 448 448 347.7 448 224 C 448 100.30000000000001 347.7 0 224 0 Z M 0 0 M 224 400 C 126.8 400 48 321.2 48 224 C 48 126.80000000000001 126.8 48 224 48 C 321.2 48 400 126.8 400 224 C 400 321.2 321.2 400 224 400 Z"/></g></g></g></g><g transform="matrix(1,0,0,1,28,61)"/></g><g id="_68673827-97B5-4528-A612-9AD5BEDDE1F7" bpmn2nodeid="_68673827-97B5-4528-A612-9AD5BEDDE1F7" transform="matrix(1,0,0,1,55,129)"><g><path fill="none" stroke="none"/></g><g transform="matrix(0.125,0,0,0.125,0,0)"><g transform="matrix(1,0,0,1,0,0)"><path fill="#e8fae6" stroke="none" id="_68673827-97B5-4528-A612-9AD5BEDDE1F7?shapeType=BACKGROUND" paint-order="stroke fill markers" d=" M 0 0 M 444 224 C 444 263.9 434.2 300.8 414.4 334.5 C 394.7 368.2 368 394.9 334.4 414.5 C 300.79999999999995 434.1 263.9 444 224 444 C 184.10000000000002 444 147.2 434.2 113.5 414.4 C 79.8 394.7 53.1 368 33.5 334.4 C 13.899999999999999 300.79999999999995 4 263.9 4 224 C 4 184.10000000000002 13.8 147.2 33.6 113.5 C 53.400000000000006 79.80000000000001 80.1 53.1 113.6 33.5 C 147.1 13.899999999999999 184.1 4 224 4 C 263.9 4 300.8 13.8 334.5 33.6 C 368.2 53.400000000000006 394.9 80.1 414.5 113.6 C 434.1 147.1 444 184.1 444 224 Z"/></g><g><g transform="matrix(1,0,0,1,0,0)"><g transform="matrix(1,0,0,1,0,0)"><path fill="#4aa241" stroke="none" id="_68673827-97B5-4528-A612-9AD5BEDDE1F7?shapeType=BORDER&amp;renderType=FILL" paint-order="stroke fill markers" d=" M 0 0 M 224 0 C 100.3 0 0 100.3 0 224 C 0 347.7 100.3 448 224 448 C 347.7 448 448 347.7 448 224 C 448 100.30000000000001 347.7 0 224 0 Z M 0 0 M 224 432 C 109.1 432 16 338.9 16 224 C 16 109.10000000000002 109.1 16 224 16 C 338.9 16 432 109.1 432 224 C 432 338.9 338.9 432 224 432 Z"/></g></g></g></g><g transform="matrix(1,0,0,1,28,61)"/></g><g id="_003F659D-A50C-4E68-A3BA-25827A2B4C4C" bpmn2nodeid="_003F659D-A50C-4E68-A3BA-25827A2B4C4C" transform="matrix(1,0,0,1,597,267)"><g><path fill="none" stroke="none"/></g><g transform="matrix(1,0,0,1,0,0)"><path fill="#ffffff" stroke="none" id="_003F659D-A50C-4E68-A3BA-25827A2B4C4C?shapeType=BACKGROUND" paint-order="stroke fill markers" d=" M 2 0 L 152 0 L 152 0 A 2 2 0 0 1 154 2 L 154 100 L 154 100 A 2 2 0 0 1 152 102 L 2 102 L 2 102 A 2 2 0 0 1 0 100 L 0 2 L 0 2.0000000000000004 A 2 2 0 0 1 1.9999999999999996 0 Z"/></g><g transform="matrix(1,0,0,1,0,0)"><path fill="none" stroke="rgb(0,0,0)" id="_003F659D-A50C-4E68-A3BA-25827A2B4C4C?shapeType=BORDER&amp;renderType=STROKE" paint-order="fill stroke markers" d=" M 2 0 L 152 0 L 152 0 A 2 2 0 0 1 154 2 L 154 100 L 154 100 A 2 2 0 0 1 152 102 L 2 102 L 2 102 A 2 2 0 0 1 0 100 L 0 2 L 0 2.0000000000000004 A 2 2 0 0 1 1.9999999999999996 0 Z" stroke-miterlimit="10" stroke-width="1.5" stroke-dasharray=""/></g><g><g transform="matrix(0.06,0,0,0.06,9.4,9.4)"><g transform="matrix(1,0,0,1,0,0)"><path fill="#393f44" stroke="none" id="_003F659D-A50C-4E68-A3BA-25827A2B4C4C_task__sy0h__jMfG" paint-order="stroke fill markers" d=" M 0 0 M 197.3 130.2 C 194.4 127.29999999999998 189.60000000000002 127.29999999999998 186.70000000000002 130.2 L 130.20000000000002 186.7 C 127.30000000000001 189.6 127.30000000000001 194.39999999999998 130.20000000000002 197.29999999999998 L 186.70000000000002 253.79999999999998 C 188.10000000000002 255.29999999999998 190.10000000000002 255.99999999999997 192.00000000000003 255.99999999999997 C 193.90000000000003 255.99999999999997 195.90000000000003 255.29999999999998 197.30000000000004 253.69999999999996 C 200.20000000000005 250.79999999999995 200.20000000000005 245.99999999999997 197.30000000000004 243.09999999999997 L 146.2 192 L 197.29999999999998 140.8 C 200.2 137.9 200.2 133.1 197.3 130.2 Z"/></g><g transform="matrix(1,0,0,1,0,0)"><path fill="#393f44" stroke="none" id="_003F659D-A50C-4E68-A3BA-25827A2B4C4C_task__sy0h__kiuk" paint-order="stroke fill markers" d=" M 0 0 M 261.3 130.2 C 258.40000000000003 127.29999999999998 253.60000000000002 127.29999999999998 250.70000000000002 130.2 C 247.8 133.1 247.8 137.89999999999998 250.70000000000002 140.79999999999998 L 301.8 191.89999999999998 L 250.7 243 C 247.79999999999998 245.9 247.79999999999998 250.7 250.7 253.6 C 252.1 255.29999999999998 254.1 256 256 256 C 257.9 256 259.9 255.3 261.3 253.8 L 317.8 197.3 C 320.7 194.4 320.7 189.60000000000002 317.8 186.70000000000002 L 261.3 130.2 Z"/></g><g transform="matrix(1,0,0,1,0,0)"><path fill="#393f44" stroke="none" id="_003F659D-A50C-4E68-A3BA-25827A2B4C4C_task__sy0h__xq2e" paint-order="stroke fill markers" d=" M 0 0 M 400 32 C 400 32 152.8 32 128 32 C 62 32 64 96 64 96 L 64 288 L 1 288 C 1 288 -4 416 78 416 L 320 416 C 368 416 384 368 384 336 C 384 314.2 384 224.4 384 160 L 448 160 L 448 96 C 448 96 449 32 400 32 Z M 0 0 M 78 383.9 C 68.5 383.9 61.6 381.09999999999997 55.5 374.9 C 43.4 362.4 37.5 339.59999999999997 34.9 320 L 256.9 320 C 257.09999999999997 322.7 257.29999999999995 325.4 257.59999999999997 328.2 C 259.99999999999994 351.59999999999997 264.7 370.09999999999997 271.9 383.9 L 78 383.9 L 78 383.9 Z M 0 0 M 352 336 C 352 345.9 349.6 360.3 342.9 371 C 337.2 380.1 330.4 384 320 384 C 285 384 288 288 288 288 L 96 288 L 96 96 L 96 95.9 L 96 95.10000000000001 C 96 90.60000000000001 97.6 78.30000000000001 104.7 71.20000000000002 C 106.5 69.40000000000002 111.9 64.00000000000001 128 64.00000000000001 L 356.5 64.00000000000001 C 354.4 72.80000000000001 352.8 81.80000000000001 352.2 89.9 C 352.2 90.5 352.09999999999997 91.10000000000001 352.09999999999997 91.7 C 352.09999999999997 92 352.09999999999997 92.3 352.09999999999997 92.60000000000001 C 352 94.8 352 96 352 96 L 352 160 L 352 336 Z"/></g></g></g><g transform="matrix(1,0,0,1,35,36)"><text fill="#000000" stroke="none" font-family="Open Sans" font-size="12pt" font-style="normal" font-weight="normal" text-decoration="normal" x="53.13671875" y="12" text-anchor="middle" dominant-baseline="alphabetic">    Aumenta     </text><text fill="#000000" stroke="none" font-family="Open Sans" font-size="12pt" font-style="normal" font-weight="normal" text-decoration="normal" x="53.13671875" y="27" text-anchor="middle" dominant-baseline="alphabetic">Intentos Envío</text></g></g><g id="_1640B2C4-905D-4AD0-A98F-8C107E37E904" bpmn2nodeid="_1640B2C4-905D-4AD0-A98F-8C107E37E904" transform="matrix(1,0,0,1,461,290)"><g><path fill="none" stroke="none"/></g><g transform="matrix(0.125,0,0,0.125,0,0)"><g transform="matrix(1,0,0,1,0,0)"><path fill="#fef4ea" stroke="none" id="_1640B2C4-905D-4AD0-A98F-8C107E37E904?shapeType=BACKGROUND" paint-order="stroke fill markers" d=" M 0 0 M 224.4 4.3 C 216.4 4.3 208.4 7.3 202.3 13.399999999999999 L 13.5 202.2 C 1.3000000000000007 214.39999999999998 1.3000000000000007 234.2 13.5 246.39999999999998 L 202.2 435.09999999999997 C 208.29999999999998 441.2 216.39999999999998 444.2 224.29999999999998 444.2 C 232.2 444.2 240.29999999999998 441.2 246.39999999999998 435.09999999999997 L 435.09999999999997 246.39999999999998 C 447.29999999999995 234.2 447.29999999999995 214.39999999999998 435.09999999999997 202.2 L 246.5 13.4 C 240.4 7.3 232.4 4.3 224.4 4.3 L 224.4 4.3 Z"/></g><g><g transform="matrix(1,0,0,1,0,0)"><g transform="matrix(1,0,0,1,0,0)"><path fill="#ec7a08" stroke="none" id="_1640B2C4-905D-4AD0-A98F-8C107E37E904?shapeType=BORDER&amp;renderType=FILL" paint-order="stroke fill markers" d=" M 0 0 M 20.8 212.7 L 213.3 20.2 C 219.60000000000002 13.899999999999999 229.70000000000002 13.899999999999999 235.9 20.2 L 428.4 212.7 C 434.7 219 434.7 229.1 428.4 235.29999999999998 L 235.9 427.8 C 229.6 434.1 219.5 434.1 213.3 427.8 L 20.8 235.3 C 14.5 229.1 14.5 218.9 20.8 212.7 L 20.8 212.7 Z M 0 0 M 0 224 C 0 232.1 3.1 240.3 9.3 246.5 L 201.5 438.7 C 213.9 451.09999999999997 234.1 451.09999999999997 246.5 438.7 L 438.7 246.5 C 444.9 240.3 448 232.1 448 224 C 448 215.9 444.9 207.7 438.7 201.5 L 246.5 9.3 C 234.1 -3.0999999999999996 213.9 -3.0999999999999996 201.5 9.3 L 9.3 201.5 C 3.1 207.7 0 215.9 0 224 L 0 224 Z"/></g></g></g><g><g transform="matrix(1,0,0,1,0,0)"><g transform="matrix(1,0,0,1,0,0)"><path fill="#ec7a08" stroke="none" id="_1640B2C4-905D-4AD0-A98F-8C107E37E904_exclusive" paint-order="stroke fill markers" d=" M 0 0 M 298.2 269.2 C 298.2 272.59999999999997 297.09999999999997 275.3 294.7 277.7 L 277.7 294.7 C 275.3 297.09999999999997 272.59999999999997 298.2 269.2 298.2 C 265.8 298.2 263.09999999999997 297.09999999999997 260.7 294.7 L 224 258 L 187.2 294.8 C 184.79999999999998 297.2 182.1 298.3 178.7 298.3 C 175.29999999999998 298.3 172.6 297.2 170.2 294.8 L 153.2 277.8 C 150.79999999999998 275.40000000000003 149.7 272.7 149.7 269.3 C 149.7 265.90000000000003 150.79999999999998 263.2 153.2 260.8 L 190 224 L 153.2 187.2 C 150.79999999999998 184.79999999999998 149.7 182 149.7 178.7 C 149.7 175.29999999999998 150.79999999999998 172.5 153.2 170.2 L 170.2 153.2 C 172.6 150.79999999999998 175.29999999999998 149.7 178.7 149.7 C 182.1 149.7 184.79999999999998 150.79999999999998 187.2 153.2 L 224 190 L 260.8 153.2 C 263.2 150.79999999999998 265.90000000000003 149.7 269.3 149.7 C 272.7 149.7 275.40000000000003 150.79999999999998 277.8 153.2 L 294.8 170.2 C 297.2 172.5 298.3 175.29999999999998 298.3 178.7 C 298.3 182 297.2 184.79999999999998 294.8 187.2 L 258 224 L 294.8 260.8 C 297.1 263.1 298.2 265.9 298.2 269.2 Z"/></g></g></g></g><g transform="matrix(1,0,0,1,-8.98046875,61)"><text fill="#000000" stroke="none" font-family="Open Sans" font-size="12pt" font-style="normal" font-weight="normal" text-decoration="normal" x="36.98046875" y="12" text-anchor="middle" dominant-baseline="alphabetic">Mayor a 3</text></g></g><g id="_6A085BA3-9360-47A0-9D30-14938545C346" bpmn2nodeid="_6A085BA3-9360-47A0-9D30-14938545C346" transform="matrix(1,0,0,1,461,403.5)"><g><path fill="none" stroke="none"/></g><g transform="matrix(0.125,0,0,0.125,0,0)"><g transform="matrix(1,0,0,1,0,0)"><path fill="#fbefcf" stroke="none" id="_6A085BA3-9360-47A0-9D30-14938545C346?shapeType=BACKGROUND" paint-order="stroke fill markers" d=" M 0 0 M 444 224 C 444 263.9 434.2 300.8 414.4 334.5 C 394.7 368.2 368 394.9 334.4 414.5 C 300.79999999999995 434.1 263.9 444 224 444 C 184.10000000000002 444 147.2 434.2 113.5 414.4 C 79.8 394.7 53.1 368 33.5 334.4 C 13.899999999999999 300.79999999999995 4 263.9 4 224 C 4 184.10000000000002 13.8 147.2 33.6 113.5 C 53.400000000000006 79.80000000000001 80.1 53.1 113.6 33.5 C 147.1 13.899999999999999 184.1 4 224 4 C 263.9 4 300.8 13.8 334.5 33.6 C 368.2 53.400000000000006 394.9 80.1 414.5 113.6 C 434.1 147.1 444 184.1 444 224 Z"/></g><g><g transform="matrix(1,0,0,1,0,0)"><g transform="matrix(1,0,0,1,0,0)"><path fill="#e5a000" stroke="none" id="_6A085BA3-9360-47A0-9D30-14938545C346?shapeType=BORDER&amp;renderType=FILL" paint-order="stroke fill markers" d=" M 0 0 M 224 408 C 122.5 408 40 325.5 40 224 C 40 122.5 122.5 40 224 40 C 325.5 40 408 122.5 408 224 C 408 325.5 325.5 408 224 408 Z M 0 0 M 224 56 C 131.4 56 56 131.4 56 224 C 56 316.6 131.4 392 224 392 C 316.6 392 392 316.6 392 224 C 392 131.39999999999998 316.6 56 224 56 Z M 0 0 M 224 16 C 252.1 16 279.3 21.5 305 32.3 C 329.8 42.8 352 57.8 371.1 76.9 C 390.20000000000005 96.00000000000001 405.20000000000005 118.30000000000001 415.70000000000005 143 C 426.50000000000006 168.6 432.00000000000006 195.9 432.00000000000006 224 C 432.00000000000006 252.1 426.50000000000006 279.3 415.70000000000005 305 C 405.20000000000005 329.8 390.20000000000005 352 371.1 371.1 C 352 390.20000000000005 329.70000000000005 405.20000000000005 305 415.70000000000005 C 279.4 426.50000000000006 252.1 432.00000000000006 224 432.00000000000006 C 195.9 432.00000000000006 168.7 426.50000000000006 143 415.70000000000005 C 118.2 405.20000000000005 96 390.20000000000005 76.9 371.1 C 57.80000000000001 352 42.8 329.7 32.3 305 C 21.5 279.3 16 252.1 16 224 C 16 195.9 21.5 168.7 32.3 143 C 42.8 118.2 57.8 96 76.9 76.9 C 96.00000000000001 57.80000000000001 118.30000000000001 42.800000000000004 143 32.300000000000004 C 168.7 21.5 195.9 16 224 16 M 224 0 C 100.3 0 0 100.3 0 224 C 0 347.7 100.3 448 224 448 C 347.7 448 448 347.7 448 224 C 448 100.30000000000001 347.7 0 224 0 L 224 0 Z"/></g></g></g><g><g transform="matrix(1,0,0,1,0,0)"><g transform="matrix(1,0,0,1,0,0)"><path fill="#e5a000" stroke="none" id="_6A085BA3-9360-47A0-9D30-14938545C346_message-catching" paint-order="stroke fill markers" d=" M 0 0 M 320.2 288.7 L 320.2 192.7 C 317.59999999999997 195.7 314.7 198.5 311.59999999999997 200.89999999999998 C 289.2 218.09999999999997 271.49999999999994 232.09999999999997 258.4 243.09999999999997 C 254.2 246.69999999999996 250.7 249.49999999999997 247.99999999999997 251.49999999999997 C 245.29999999999995 253.49999999999997 241.79999999999998 255.49999999999997 237.19999999999996 257.59999999999997 C 232.59999999999997 259.7 228.39999999999995 260.7 224.39999999999995 260.7 L 224.19999999999996 260.7 C 220.19999999999996 260.7 215.99999999999997 259.7 211.39999999999995 257.59999999999997 C 206.79999999999995 255.49999999999997 203.19999999999996 253.49999999999997 200.59999999999994 251.49999999999997 C 197.89999999999995 249.49999999999997 194.49999999999994 246.69999999999996 190.19999999999993 243.09999999999997 C 177.09999999999994 232.09999999999997 159.29999999999993 217.99999999999997 136.99999999999994 200.89999999999998 C 133.89999999999995 198.39999999999998 131.09999999999994 195.7 128.39999999999995 192.7 L 128.39999999999995 288.7 C 128.39999999999995 289.8 128.79999999999995 290.7 129.59999999999994 291.5 C 130.39999999999992 292.3 131.39999999999995 292.7 132.39999999999995 292.7 L 316.4 292.7 C 317.5 292.7 318.4 292.3 319.2 291.5 C 319.9 290.7 320.2 289.8 320.2 288.7 Z M 0 0 M 320.2 152.7 C 320.2 151.6 319.8 150.7 319 149.89999999999998 C 318.2 149.09999999999997 317.3 148.7 316.2 148.7 L 316.2 148.7 L 132.2 148.7 C 131.1 148.7 130.2 149.1 129.39999999999998 149.89999999999998 C 128.59999999999997 150.7 128.2 151.59999999999997 128.2 152.7 C 128.2 166.7 134.29999999999998 178.5 146.6 188.2 C 162.7 200.89999999999998 179.39999999999998 214.1 196.7 227.79999999999998 C 197.2 228.2 198.6 229.49999999999997 201.1 231.49999999999997 C 203.6 233.59999999999997 205.5 235.09999999999997 206.9 236.19999999999996 C 208.3 237.29999999999995 210.1 238.59999999999997 212.5 240.09999999999997 C 214.9 241.59999999999997 216.9 242.79999999999995 218.8 243.49999999999997 C 220.70000000000002 244.29999999999998 222.5 244.59999999999997 224.20000000000002 244.59999999999997 L 224.4 244.59999999999997 C 226 244.59999999999997 227.8 244.19999999999996 229.8 243.49999999999997 C 231.8 242.79999999999998 233.8 241.59999999999997 236.10000000000002 240.09999999999997 C 238.40000000000003 238.59999999999997 240.3 237.19999999999996 241.70000000000002 236.19999999999996 C 243.10000000000002 235.09999999999997 245.10000000000002 233.59999999999997 247.50000000000003 231.49999999999997 C 249.90000000000003 229.39999999999998 251.40000000000003 228.29999999999998 251.90000000000003 227.79999999999998 C 269.3 213.99999999999997 285.90000000000003 200.89999999999998 302.00000000000006 188.2 C 306.50000000000006 184.6 310.70000000000005 179.79999999999998 314.6000000000001 173.7 C 318.50000000000006 167.7 320.4000000000001 162.2 320.4000000000001 157.29999999999998 L 320.4000000000001 154.2 L 320.4000000000001 152.7 Z M 0 0 M 336.2 152.7 L 336.2 288.7 C 336.2 294.2 334.3 298.9 330.3 302.8 C 326.40000000000003 306.7 321.7 308.7 316.2 308.7 L 132.2 308.7 C 126.69999999999999 308.7 121.99999999999999 306.7 118.1 302.8 C 114.19999999999999 298.90000000000003 112.19999999999999 294.2 112.19999999999999 288.7 L 112.19999999999999 152.7 C 112.19999999999999 147.2 114.19999999999999 142.5 118.1 138.6 C 122 134.7 126.69999999999999 132.7 132.2 132.7 L 316.2 132.7 C 321.7 132.7 326.4 134.6 330.3 138.6 C 334.2 142.6 336.2 147.2 336.2 152.7 Z"/></g></g></g></g><g transform="matrix(1,0,0,1,-21.69921875,61)"><text fill="#000000" stroke="none" font-family="Open Sans" font-size="12pt" font-style="normal" font-weight="normal" text-decoration="normal" x="49.69921875" y="12" text-anchor="middle" dominant-baseline="alphabetic">Notifica Error</text></g></g><g id="_4F47A229-F409-47A3-BD1F-A5DB73921595" bpmn2nodeid="_4F47A229-F409-47A3-BD1F-A5DB73921595" transform="matrix(1,0,0,1,904,126)"><g><path fill="none" stroke="none"/></g><g transform="matrix(0.125,0,0,0.125,0,0)"><g transform="matrix(1,0,0,1,0,0)"><path fill="#fbefcf" stroke="none" id="_4F47A229-F409-47A3-BD1F-A5DB73921595?shapeType=BACKGROUND" paint-order="stroke fill markers" d=" M 0 0 M 444 224 C 444 263.9 434.2 300.8 414.4 334.5 C 394.7 368.2 368 394.9 334.4 414.5 C 300.79999999999995 434.1 263.9 444 224 444 C 184.10000000000002 444 147.2 434.2 113.5 414.4 C 79.8 394.7 53.1 368 33.5 334.4 C 13.899999999999999 300.79999999999995 4 263.9 4 224 C 4 184.10000000000002 13.8 147.2 33.6 113.5 C 53.400000000000006 79.80000000000001 80.1 53.1 113.6 33.5 C 147.1 13.899999999999999 184.1 4 224 4 C 263.9 4 300.8 13.8 334.5 33.6 C 368.2 53.400000000000006 394.9 80.1 414.5 113.6 C 434.1 147.1 444 184.1 444 224 Z"/></g><g><g transform="matrix(1,0,0,1,0,0)"><g transform="matrix(1,0,0,1,0,0)"><path fill="#e5a000" stroke="none" id="_4F47A229-F409-47A3-BD1F-A5DB73921595?shapeType=BORDER&amp;renderType=FILL" paint-order="stroke fill markers" d=" M 0 0 M 224 408 C 122.5 408 40 325.5 40 224 C 40 122.5 122.5 40 224 40 C 325.5 40 408 122.5 408 224 C 408 325.5 325.5 408 224 408 Z M 0 0 M 224 56 C 131.4 56 56 131.4 56 224 C 56 316.6 131.4 392 224 392 C 316.6 392 392 316.6 392 224 C 392 131.39999999999998 316.6 56 224 56 Z M 0 0 M 224 16 C 252.1 16 279.3 21.5 305 32.3 C 329.8 42.8 352 57.8 371.1 76.9 C 390.20000000000005 96.00000000000001 405.20000000000005 118.30000000000001 415.70000000000005 143 C 426.50000000000006 168.6 432.00000000000006 195.9 432.00000000000006 224 C 432.00000000000006 252.1 426.50000000000006 279.3 415.70000000000005 305 C 405.20000000000005 329.8 390.20000000000005 352 371.1 371.1 C 352 390.20000000000005 329.70000000000005 405.20000000000005 305 415.70000000000005 C 279.4 426.50000000000006 252.1 432.00000000000006 224 432.00000000000006 C 195.9 432.00000000000006 168.7 426.50000000000006 143 415.70000000000005 C 118.2 405.20000000000005 96 390.20000000000005 76.9 371.1 C 57.80000000000001 352 42.8 329.7 32.3 305 C 21.5 279.3 16 252.1 16 224 C 16 195.9 21.5 168.7 32.3 143 C 42.8 118.2 57.8 96 76.9 76.9 C 96.00000000000001 57.80000000000001 118.30000000000001 42.800000000000004 143 32.300000000000004 C 168.7 21.5 195.9 16 224 16 M 224 0 C 100.3 0 0 100.3 0 224 C 0 347.7 100.3 448 224 448 C 347.7 448 448 347.7 448 224 C 448 100.30000000000001 347.7 0 224 0 L 224 0 Z"/></g></g></g><g><g transform="matrix(1,0,0,1,0,0)"><g transform="matrix(1,0,0,1,0,0)"><path fill="#e5a000" stroke="none" id="_4F47A229-F409-47A3-BD1F-A5DB73921595_signal-catching" paint-order="stroke fill markers" d=" M 0 0 M 224.6 124.8 L 320.5 300.7 L 128.8 300.7 L 224.6 124.8 M 224.6 108.7 C 221.7 108.7 219 109.5 216.5 110.9 C 214 112.30000000000001 212.1 114.5 210.6 117 L 114.69999999999999 293 C 111.79999999999998 298.2 111.89999999999999 303.5 114.89999999999999 308.8 C 116.3 311.2 118.19999999999999 313.2 120.69999999999999 314.6 C 123.1 316 125.79999999999998 316.70000000000005 128.7 316.70000000000005 L 320.5 316.70000000000005 C 323.4 316.70000000000005 325.9 316.00000000000006 328.4 314.6 C 330.9 313.20000000000005 332.79999999999995 311.3 334.2 308.8 C 337.3 303.6 337.3 298.3 334.4 293 L 238.49999999999997 117 C 237.09999999999997 114.4 235.19999999999996 112.4 232.69999999999996 110.9 C 230.2 109.4 227.5 108.7 224.6 108.7 L 224.6 108.7 Z"/></g></g></g></g><g transform="matrix(1,0,0,1,28,61)"/></g><g id="_AD181C1A-368E-4599-9ABC-370CBA7C7528" bpmn2nodeid="_AD181C1A-368E-4599-9ABC-370CBA7C7528" transform="matrix(1,0,0,1,1029,126)"><g><path fill="none" stroke="none"/></g><g transform="matrix(0.125,0,0,0.125,0,0)"><g transform="matrix(1,0,0,1,0,0)"><path fill="#fce7e7" stroke="none" id="_AD181C1A-368E-4599-9ABC-370CBA7C7528?shapeType=BACKGROUND" paint-order="stroke fill markers" d=" M 0 0 M 444 224 C 444 263.9 434.2 300.8 414.4 334.5 C 394.7 368.2 368 394.9 334.4 414.5 C 300.79999999999995 434.1 263.9 444 224 444 C 184.10000000000002 444 147.2 434.2 113.5 414.4 C 79.8 394.7 53.1 368 33.5 334.4 C 13.899999999999999 300.79999999999995 4 263.9 4 224 C 4 184.10000000000002 13.8 147.2 33.6 113.5 C 53.400000000000006 79.80000000000001 80.1 53.1 113.6 33.5 C 147.1 13.899999999999999 184.1 4 224 4 C 263.9 4 300.8 13.8 334.5 33.6 C 368.2 53.400000000000006 394.9 80.1 414.5 113.6 C 434.1 147.1 444 184.1 444 224 Z"/></g><g><g transform="matrix(1,0,0,1,0,0)"><g transform="matrix(1,0,0,1,0,0)"><path fill="#a30000" stroke="none" id="_AD181C1A-368E-4599-9ABC-370CBA7C7528?shapeType=BORDER&amp;renderType=FILL" paint-order="stroke fill markers" d=" M 0 0 M 224 0 C 100.3 0 0 100.3 0 224 C 0 347.7 100.3 448 224 448 C 347.7 448 448 347.7 448 224 C 448 100.30000000000001 347.7 0 224 0 Z M 0 0 M 224 400 C 126.8 400 48 321.2 48 224 C 48 126.80000000000001 126.8 48 224 48 C 321.2 48 400 126.8 400 224 C 400 321.2 321.2 400 224 400 Z"/></g></g></g></g><g transform="matrix(1,0,0,1,28,61)"/></g><g id="_2656D347-F15E-4370-A9A1-C368FE35ABC9" bpmn2nodeid="_2656D347-F15E-4370-A9A1-C368FE35ABC9"><g><path fill="none" stroke="#000000" paint-order="fill stroke markers" d=" M 111 157 L 116 157" stroke-miterlimit="10" stroke-dasharray=""/></g><g transform="matrix(1,0,0,1,111,157)"/><g transform="matrix(6.123233995736766e-17,1,-1,6.123233995736766e-17,131,152)"><path fill="#000000" stroke="#000000" paint-order="fill stroke markers" d=" M 10 15 L 0 15 L 5 0 Z" stroke-miterlimit="10" stroke-dasharray=""/></g><g transform="matrix(1,0,0,1,111,147)"/></g><g id="_BEB99BA4-BCA1-41E1-991D-EBDEBAF537E4" bpmn2nodeid="_BEB99BA4-BCA1-41E1-991D-EBDEBAF537E4"><g><path fill="none" stroke="#000000" paint-order="fill stroke markers" d=" M 189 155.8082191780822 L 190.0126505199846 155.76660340328831" stroke-miterlimit="10" stroke-dasharray=""/></g><g transform="matrix(1,0,0,1,189,155.8082191780822)"/><g transform="matrix(0.041061231452098015,0.9991566320010278,-0.9991566320010278,0.041061231452098015,204.79469384273952,150.1549017715017)"><path fill="#000000" stroke="#000000" paint-order="fill stroke markers" d=" M 10 15 L 0 15 L 5 0 Z" stroke-miterlimit="10" stroke-dasharray=""/></g><g transform="matrix(1,0,0,1,189.410612314521,145.48788573478424)"/></g><g id="_42EFA9E5-6378-4C6F-AC9F-011811B2734F" bpmn2nodeid="_42EFA9E5-6378-4C6F-AC9F-011811B2734F"><g><path fill="none" stroke="#000000" paint-order="fill stroke markers" d=" M 261 154 L 288.5 154" stroke-miterlimit="10" stroke-dasharray=""/></g><g transform="matrix(1,0,0,1,261,154)"/><g transform="matrix(6.123233995736766e-17,1,-1,6.123233995736766e-17,303.5,149)"><path fill="#000000" stroke="#000000" paint-order="fill stroke markers" d=" M 10 15 L 0 15 L 5 0 Z" stroke-miterlimit="10" stroke-dasharray=""/></g><g transform="matrix(1,0,0,1,261,144)"/></g><g id="_57F5A9F4-CBBC-40CF-9923-39BC86E5C0A4" bpmn2nodeid="_57F5A9F4-CBBC-40CF-9923-39BC86E5C0A4"><g><path fill="none" stroke="#000000" paint-order="fill stroke markers" d=" M 372.5 154 L 536 154" stroke-miterlimit="10" stroke-dasharray=""/></g><g transform="matrix(1,0,0,1,372.5,154)"/><g transform="matrix(6.123233995736766e-17,1,-1,6.123233995736766e-17,551,149)"><path fill="#000000" stroke="#000000" paint-order="fill stroke markers" d=" M 10 15 L 0 15 L 5 0 Z" stroke-miterlimit="10" stroke-dasharray=""/></g><g transform="matrix(1,0,0,1,372.5,144)"/></g><g id="_138ECA66-BA9F-45EB-B26D-8E59AECC66AA" bpmn2nodeid="_138ECA66-BA9F-45EB-B26D-8E59AECC66AA"><g><path fill="none" stroke="#000000" paint-order="fill stroke markers" d=" M 705 154 L 763 154" stroke-miterlimit="10" stroke-dasharray=""/></g><g transform="matrix(1,0,0,1,705,154)"/><g transform="matrix(6.123233995736766e-17,1,-1,6.123233995736766e-17,778,149)"><path fill="#000000" stroke="#000000" paint-order="fill stroke markers" d=" M 10 15 L 0 15 L 5 0 Z" stroke-miterlimit="10" stroke-dasharray=""/></g><g transform="matrix(1,0,0,1,705,144)"/></g><g id="_403AE2C7-359A-4EED-A004-07C8B35FC000" bpmn2nodeid="_403AE2C7-359A-4EED-A004-07C8B35FC000"><g><path fill="none" stroke="#000000" paint-order="fill stroke markers" d=" M 806 182 L 806 318 L 766 318" stroke-miterlimit="10" stroke-dasharray=""/></g><g transform="matrix(1,0,0,1,806,182)"/><g transform="matrix(-1.8369701987210297e-16,-1,1,-1.8369701987210297e-16,751,323)"><path fill="#000000" stroke="#000000" paint-order="fill stroke markers" d=" M 10 15 L 0 15 L 5 0 Z" stroke-miterlimit="10" stroke-dasharray=""/></g><g transform="matrix(1,0,0,1,816,239)"><text fill="#000000" stroke="none" font-family="Open Sans" font-size="10pt" font-style="normal" font-weight="normal" text-decoration="normal" x="0" y="8.8" text-anchor="start" dominant-baseline="alphabetic">NO                                 </text></g></g><g id="_F8E66B1C-741F-4C5F-AAC3-85B47FB12262" bpmn2nodeid="_F8E66B1C-741F-4C5F-AAC3-85B47FB12262"><g><path fill="none" stroke="#000000" paint-order="fill stroke markers" d=" M 597 318 L 532 318" stroke-miterlimit="10" stroke-dasharray=""/></g><g transform="matrix(1,0,0,1,597,318)"/><g transform="matrix(-1.8369701987210297e-16,-1,1,-1.8369701987210297e-16,517,323)"><path fill="#000000" stroke="#000000" paint-order="fill stroke markers" d=" M 10 15 L 0 15 L 5 0 Z" stroke-miterlimit="10" stroke-dasharray=""/></g><g transform="matrix(1,0,0,1,517,308)"/></g><g id="_AFD7958B-40C9-4AD0-8C74-D7CA0E738CF2" bpmn2nodeid="_AFD7958B-40C9-4AD0-8C74-D7CA0E738CF2"><g><path fill="none" stroke="#000000" paint-order="fill stroke markers" d=" M 461 318 L 368 318" stroke-miterlimit="10" stroke-dasharray=""/></g><g transform="matrix(1,0,0,1,461,318)"/><g transform="matrix(-1.8369701987210297e-16,-1,1,-1.8369701987210297e-16,353,323)"><path fill="#000000" stroke="#000000" paint-order="fill stroke markers" d=" M 10 15 L 0 15 L 5 0 Z" stroke-miterlimit="10" stroke-dasharray=""/></g><g transform="matrix(1,0,0,1,353,297)"><text fill="#000000" stroke="none" font-family="Open Sans" font-size="10pt" font-style="normal" font-weight="normal" text-decoration="normal" x="0" y="8.8" text-anchor="start" dominant-baseline="alphabetic">NO                         </text></g></g><g id="_77AE1205-1FDF-48F0-A537-3C5CE5A679C6" bpmn2nodeid="_77AE1205-1FDF-48F0-A537-3C5CE5A679C6"><g><path fill="none" stroke="#000000" paint-order="fill stroke markers" d=" M 297 318 L 233 318 L 233 197" stroke-miterlimit="10" stroke-dasharray=""/></g><g transform="matrix(1,0,0,1,297,318)"/><g transform="matrix(1,0,0,1,228,182)"><path fill="#000000" stroke="#000000" paint-order="fill stroke markers" d=" M 10 15 L 0 15 L 5 0 Z" stroke-miterlimit="10" stroke-dasharray=""/></g><g transform="matrix(1,0,0,1,233,308)"/></g><g id="_D294B932-9633-41C7-97B3-E4614ED495A4" bpmn2nodeid="_D294B932-9633-41C7-97B3-E4614ED495A4"><g><path fill="none" stroke="#000000" paint-order="fill stroke markers" d=" M 489 346 L 489 388.5" stroke-miterlimit="10" stroke-dasharray=""/></g><g transform="matrix(1,0,0,1,489,346)"/><g transform="matrix(-1,1.2246467991473532e-16,-1.2246467991473532e-16,-1,494,403.5)"><path fill="#000000" stroke="#000000" paint-order="fill stroke markers" d=" M 10 15 L 0 15 L 5 0 Z" stroke-miterlimit="10" stroke-dasharray=""/></g><g transform="matrix(1,0,0,1,499,374.75)"/></g><g id="_B406D91A-6E18-4B6E-8CA6-40A8F910160D" bpmn2nodeid="_B406D91A-6E18-4B6E-8CA6-40A8F910160D"><g><path fill="none" stroke="#000000" paint-order="fill stroke markers" d=" M 517 431.5 L 582 431.5" stroke-miterlimit="10" stroke-dasharray=""/></g><g transform="matrix(1,0,0,1,517,431.5)"/><g transform="matrix(6.123233995736766e-17,1,-1,6.123233995736766e-17,597,426.5)"><path fill="#000000" stroke="#000000" paint-order="fill stroke markers" d=" M 10 15 L 0 15 L 5 0 Z" stroke-miterlimit="10" stroke-dasharray=""/></g><g transform="matrix(1,0,0,1,517,421.5)"/></g><g id="_435B7A4F-164A-4EDD-BDAA-5A969DC43D9B" bpmn2nodeid="_435B7A4F-164A-4EDD-BDAA-5A969DC43D9B"><g><path fill="none" stroke="#000000" paint-order="fill stroke markers" d=" M 834 154 L 889 154" stroke-miterlimit="10" stroke-dasharray=""/></g><g transform="matrix(1,0,0,1,834,154)"/><g transform="matrix(6.123233995736766e-17,1,-1,6.123233995736766e-17,904,149)"><path fill="#000000" stroke="#000000" paint-order="fill stroke markers" d=" M 10 15 L 0 15 L 5 0 Z" stroke-miterlimit="10" stroke-dasharray=""/></g><g transform="matrix(1,0,0,1,834,133)"><text fill="#000000" stroke="none" font-family="Open Sans" font-size="10pt" font-style="normal" font-weight="normal" text-decoration="normal" x="0" y="8.8" text-anchor="start" dominant-baseline="alphabetic">SI                 </text></g></g><g id="_7575BEEB-9AB8-4EF8-9D79-F82E0BFDB670" bpmn2nodeid="_7575BEEB-9AB8-4EF8-9D79-F82E0BFDB670"><g><path fill="none" stroke="#000000" paint-order="fill stroke markers" d=" M 960 154 L 1014 154" stroke-miterlimit="10" stroke-dasharray=""/></g><g transform="matrix(1,0,0,1,960,154)"/><g transform="matrix(6.123233995736766e-17,1,-1,6.123233995736766e-17,1029,149)"><path fill="#000000" stroke="#000000" paint-order="fill stroke markers" d=" M 10 15 L 0 15 L 5 0 Z" stroke-miterlimit="10" stroke-dasharray=""/></g><g transform="matrix(1,0,0,1,960,144)"/></g><g transform="matrix(1,0,0,1,131,132)"/><g transform="matrix(1,0,0,1,205,126)"/><g transform="matrix(1,0,0,1,778,126)"/><g transform="matrix(1,0,0,1,297,290)"/><g transform="matrix(1,0,0,1,551,103)"/><g transform="matrix(1,0,0,1,597,403.5)"/><g transform="matrix(1,0,0,1,55,129)"/><g transform="matrix(1,0,0,1,461,290)"/><g transform="matrix(1,0,0,1,461,403.5)"/><g transform="matrix(1,0,0,1,904,126)"/><g transform="matrix(1,0,0,1,1029,126)"/><g transform="matrix(1,0,0,1,303.5,129)"/><g transform="matrix(1,0,0,1,597,267)"/></g></g></svg>